<svg xmlns="http://www.w3.org/2000/svg" viewBox="0 0 900 500"><defs><linearGradient id="g" x1="0" x2="1"><stop stop-color="#4cc9f0"/><stop offset="1" stop-color="#5865f2"/></linearGradient></defs><rect width="900" height="500" rx="36" fill="#f7f9ff"/><rect x="205" y="65" width="390" height="245" rx="18" fill="#1e293b"/><rect x="224" y="84" width="352" height="205" rx="8" fill="url(#g)"/><path d="M400 310h30v55h-95v18h220v-18h-95v-55z" fill="#64748b"/><rect x="620" y="105" width="145" height="260" rx="18" fill="#263449"/><rect x="642" y="132" width="100" height="15" rx="7" fill="#475569"/><rect x="642" y="160" width="100" height="15" rx="7" fill="#475569"/><circle cx="704" cy="326" r="10" fill="#52d4a8"/><rect x="235" y="394" width="355" height="48" rx="12" fill="#334155"/><g fill="#64748b"><rect x="250" y="404" width="20" height="10" rx="2"/><rect x="277" y="404" width="20" height="10" rx="2"/><rect x="304" y="404" width="20" height="10" rx="2"/><rect x="331" y="404" width="20" height="10" rx="2"/><rect x="358" y="404" width="20" height="10" rx="2"/><rect x="385" y="404" width="20" height="10" rx="2"/><rect x="412" y="404" width="20" height="10" rx="2"/><rect x="439" y="404" width="20" height="10" rx="2"/><rect x="466" y="404" width="20" height="10" rx="2"/><rect x="493" y="404" width="20" height="10" rx="2"/><rect x="520" y="404" width="20" height="10" rx="2"/><rect x="547" y="404" width="20" height="10" rx="2"/><rect x="250" y="421" width="20" height="10" rx="2"/><rect x="277" y="421" width="20" height="10" rx="2"/><rect x="304" y="421" width="20" height="10" rx="2"/><rect x="331" y="421" width="20" height="10" rx="2"/><rect x="358" y="421" width="20" height="10" rx="2"/><rect x="385" y="421" width="20" height="10" rx="2"/><rect x="412" y="421" width="20" height="10" rx="2"/><rect x="439" y="421" width="20" height="10" rx="2"/><rect x="466" y="421" width="20" height="10" rx="2"/><rect x="493" y="421" width="20" height="10" rx="2"/><rect x="520" y="421" width="20" height="10" rx="2"/><rect x="547" y="421" width="20" height="10" rx="2"/></g><ellipse cx="675" cy="420" rx="45" ry="30" fill="#475569"/><path d="M675 391v28" stroke="#94a3b8" stroke-width="4"/><circle cx="144" cy="290" r="60" fill="#334155"/><circle cx="144" cy="290" r="24" fill="#64748b"/><circle cx="144" cy="290" r="9" fill="#cbd5e1"/><text x="55" y="52" font-family="Arial" font-size="24" fill="#314158">POSTE INFORMATIQUE</text></svg>